<?xml version="1.0" encoding="utf-8"?>
<!DOCTYPE svg PUBLIC "-//W3C//DTD SVG 1.0//EN" "http://www.w3.org/TR/2001/REC-SVG-20010904/DTD/svg10.dtd">
<svg version="1.0" xmlns="http://www.w3.org/2000/svg" width="1300px" height="1300px" viewBox="0 0 1300 1300" preserveAspectRatio="xMidYMid meet">
 <g fill="#f8eead">
  <path d="M470.87 480.26 c-1.40 -3.43 -5.33 -12.31 -8.76 -20.06 -18.54 -42.40 -17.90 -40.63 -14.98 -41.01 2.92 -0.51 4.82 1.52 4.82 5.21 0 1.27 0.89 3.17 1.90 4.19 1.02 1.14 1.90 3.94 1.90 6.35 0 3.05 0.63 4.32 1.90 4.32 1.14 0 1.90 1.14 1.90 3.17 0 1.78 0.51 3.17 1.02 3.17 1.40 0 4.06 5.71 4.06 8.38 0 1.14 0.89 2.79 1.90 3.81 1.02 1.14 1.90 3.94 1.90 6.35 0 3.05 0.63 4.32 1.90 4.32 1.27 0 1.90 1.40 1.90 4.44 0 3.05 0.63 4.44 1.90 4.44 1.27 0 1.90 1.40 1.90 4.44 0 6.22 -2.16 5.59 -5.21 -1.52z"/>
  <path d="M826.46 473.03 c0 -4.06 0.38 -4.57 3.17 -4.57 3.05 0 3.17 0.13 1.52 4.06 -2.41 5.84 -4.70 6.09 -4.70 0.51z"/>
  <path d="M488.77 465.28 c0 -1.78 -0.51 -3.17 -1.27 -3.17 -0.63 0 -1.27 -2.03 -1.27 -4.44 0 -3.05 -0.63 -4.44 -1.90 -4.44 -1.27 0 -1.90 -1.40 -1.90 -4.44 0 -2.92 -0.63 -4.44 -1.65 -4.44 -2.29 0 -4.70 -5.46 -4.70 -10.16 0 -3.81 2.79 -6.35 6.98 -6.35 1.14 0 2.92 -0.89 3.94 -1.90 1.14 -1.02 3.94 -1.90 6.35 -1.90 2.79 0 4.32 -0.63 4.32 -1.78 0 -1.02 1.90 -2.03 4.82 -2.54 7.74 -1.27 10.41 -0.89 10.41 1.27 0 1.02 0.89 2.79 1.90 3.81 1.02 1.14 1.90 3.94 1.90 6.35 0 3.05 0.63 4.32 1.90 4.32 1.40 0 1.90 1.40 1.90 4.57 0 6.73 -2.41 4.82 -6.98 -5.59 -2.29 -5.08 -4.57 -9.78 -5.33 -10.54 -0.89 -0.89 -5.21 0.51 -13.20 3.94 -6.60 2.92 -12.31 5.71 -12.95 6.22 -1.52 1.40 12.19 33.13 14.09 32.50 0.76 -0.25 1.52 0 1.52 0.63 0 0.76 -2.03 1.27 -4.44 1.27 -3.94 0 -4.44 -0.38 -4.44 -3.17z"/>
  <path d="M802.34 466.43 c1.02 -0.38 4.95 -7.62 8.51 -16.12 6.60 -15.11 6.60 -15.49 4.19 -17.27 -3.81 -2.54 -3.05 -3.94 1.90 -3.94 4.44 0 4.44 0 4.44 5.71 0 3.17 -0.51 5.71 -1.27 5.71 -0.63 0 -1.27 1.40 -1.27 3.17 0 2.03 -0.76 3.17 -1.90 3.17 -1.27 0 -1.90 1.40 -1.90 4.44 0 3.05 -0.63 4.44 -1.90 4.44 -1.27 0 -1.90 1.27 -1.90 3.68 0 6.35 -1.14 7.74 -6.22 7.62 -2.54 -0.13 -3.68 -0.38 -2.67 -0.63z"/>
  <path d="M831.54 461.60 c0 -2.54 0.63 -4.57 1.27 -4.57 0.76 0 1.27 -1.14 1.27 -2.41 0 -3.81 1.40 -6.47 3.30 -6.47 1.14 0 1.78 -1.52 1.78 -4.32 0 -2.41 0.89 -5.21 1.90 -6.35 1.02 -1.02 1.90 -3.05 1.90 -4.44 0 -1.52 0.63 -2.67 1.27 -2.67 0.76 0 1.27 -1.14 1.27 -2.54 0 -4.57 2.79 -8.89 5.84 -8.89 2.03 0 2.79 0.51 2.29 1.90 -4.82 12.44 -19.55 44.43 -20.57 44.81 -1.02 0.25 -1.52 -1.27 -1.52 -4.06z"/>
  <path d="M776.95 442.56 c0 -3.17 0.51 -4.57 1.90 -4.57 1.27 0 1.90 -1.40 1.90 -4.44 0 -3.05 0.63 -4.44 1.90 -4.44 1.27 0 1.90 -1.40 1.90 -4.44 l0 -4.44 8.25 0 c6.47 0 8.25 0.38 8.25 1.90 0 1.27 1.40 1.90 4.44 1.90 3.94 0 4.44 0.38 4.44 3.17 l0 3.17 -4.70 -2.03 c-11.17 -4.70 -14.47 -5.84 -14.98 -5.33 -0.38 0.38 -2.79 5.71 -5.59 11.81 -5.33 12.44 -7.74 14.85 -7.74 7.74z"/>
  <path d="M582.71 420.85 c0 -3.55 0.51 -4.44 2.54 -4.44 1.90 0 2.54 0.89 2.54 3.17 0 2.29 0.51 2.92 1.90 2.41 1.14 -0.51 1.90 0 1.90 1.27 0 1.52 -1.27 2.03 -4.44 2.03 -4.19 0 -4.44 -0.25 -4.44 -4.44z"/>
  <path d="M428.72 421.48 c0.38 -1.40 1.78 -2.54 3.05 -2.54 2.41 0 3.43 -3.30 1.14 -4.06 -1.52 -0.51 3.30 -11.17 5.21 -11.17 1.02 0 1.27 1.78 0.89 5.71 -0.63 4.95 -0.38 5.71 1.65 5.71 4.57 0 2.41 2.54 -4.70 5.71 -3.94 1.78 -7.36 3.17 -7.49 3.17 -0.25 0 -0.13 -1.14 0.25 -2.54z"/>
  <path d="M862.39 420.72 c-6.86 -3.05 -8.76 -5.59 -4.19 -5.59 1.40 0 2.54 -0.25 2.54 -0.63 0 -0.38 -1.14 -2.92 -2.54 -5.71 -1.40 -2.79 -2.54 -6.09 -2.54 -7.62 0 -1.40 -0.51 -2.54 -1.02 -2.54 -1.78 0 -6.60 -11.30 -6.60 -15.23 0 -2.29 -0.63 -3.81 -1.65 -3.81 -2.29 0 -9.78 -15.74 -9.78 -20.31 0 -2.41 -0.63 -3.81 -1.78 -3.81 -0.89 0 -4.19 -5.33 -7.24 -12.06 -2.92 -6.60 -6.22 -12.06 -7.11 -12.06 -0.89 0 -1.65 0.51 -1.65 1.02 0 1.40 -8.76 4.06 -13.20 4.06 -6.09 0 -2.92 -2.92 6.98 -6.60 5.21 -1.90 10.28 -3.55 11.43 -3.55 1.27 0 4.57 5.71 9.65 16.88 4.32 9.14 13.96 30.21 21.71 46.59 15.11 32.50 15.87 34.28 14.47 34.15 -0.51 0 -3.94 -1.40 -7.49 -3.17z"/>
  <path d="M634.77 416.41 c0 -0.63 1.02 -1.27 2.29 -1.27 2.03 0 2.16 -1.65 1.78 -20.31 l-0.38 -20.31 -25.26 0 -25.39 0 0 18.41 c0 17.65 -0.13 18.41 -2.54 18.41 -2.54 0 -2.54 -0.63 -2.29 -20.57 l0.38 -20.69 29.83 0 29.83 0 0.38 23.87 0.25 23.74 -4.44 0 c-2.41 0 -4.44 -0.51 -4.44 -1.27z"/>
  <path d="M439.77 397.11 c4.70 -10.79 32.75 -70.33 33.52 -71.09 0.51 -0.38 15.49 4.57 33.26 11.04 17.77 6.60 33.13 11.93 34.02 12.06 0.76 0 1.52 -0.89 1.52 -1.90 0 -1.02 0.89 -1.90 1.90 -1.90 1.27 0 1.90 1.40 1.90 4.44 0 4.06 -0.25 4.44 -3.81 4.44 -4.32 0 -39.74 -12.31 -40.37 -14.09 -0.25 -0.63 -1.40 -1.14 -2.67 -1.14 -2.79 0 -14.47 -3.94 -15.36 -5.08 -0.38 -0.51 -2.79 -1.27 -5.33 -1.78 -4.57 -0.76 -4.82 -0.63 -4.82 2.29 0 4.44 -1.27 7.11 -3.30 7.11 -1.14 0 -1.78 1.40 -1.78 3.81 0 4.70 -4.95 15.23 -7.24 15.23 -1.02 0 -1.65 1.52 -1.65 3.81 0 4.70 -4.95 15.23 -7.24 15.23 -1.02 0 -1.65 1.52 -1.65 3.81 0 2.03 -1.52 6.86 -3.43 10.79 -2.67 5.46 -4.06 6.98 -6.35 6.98 -2.79 0 -2.92 -0.13 -1.14 -4.06z"/>
  <path d="M476.58 373.62 c-0.51 -2.03 -1.65 -4.70 -2.54 -6.09 -1.02 -1.40 -1.78 -4.82 -1.78 -7.74 0 -5.21 0 -5.21 8 -8.63 4.32 -1.78 9.65 -3.30 11.81 -3.30 3.68 0 4.19 0.63 7.36 8 5.08 11.93 3.94 17.39 -3.68 17.39 -1.14 0 -2.92 0.89 -3.94 1.90 -1.27 1.14 -4.32 1.90 -8.25 1.90 -5.71 0 -6.22 -0.25 -6.98 -3.43z"/>
  <path d="M806.91 375.15 c-1.02 -1.02 -2.41 -1.90 -3.17 -1.90 -0.63 0 -2.79 -0.63 -4.57 -1.52 -4.19 -1.90 -4.19 -5.71 0.13 -15.87 3.43 -7.87 3.55 -8 8.38 -8 2.79 0 6.60 0.76 8.38 1.78 1.90 1.02 4.95 2.41 6.98 3.17 2.92 1.14 3.43 2.03 3.43 6.09 -0.13 2.67 -1.14 7.11 -2.54 9.90 -1.40 2.79 -2.41 5.84 -2.54 6.73 0 2.29 -12.06 2.03 -14.47 -0.38z"/>
  <path d="M745.21 338.33 l0 -18.41 6.35 0 c7.24 0 9.01 3.05 2.54 4.44 -3.55 0.76 -3.81 1.27 -4.06 6.73 -0.25 8.13 0.25 19.68 0.89 20.31 0.25 0.25 3.05 -0.38 6.22 -1.40 5.84 -2.03 5.84 -2.03 5.84 0.89 0 2.29 -1.02 3.17 -4.95 4.32 -2.67 0.89 -6.60 1.52 -8.89 1.52 l-3.94 0 0 -18.41z"/>
  <path d="M768.32 347.60 c0.63 -1.65 2.54 -2.41 22.98 -9.90 l9.78 -3.68 0 3.17 c0 2.41 -0.63 3.05 -3.05 3.05 -1.65 0 -3.30 0.51 -3.55 1.02 -0.13 0.63 -4.57 2.54 -9.65 4.44 -10.03 3.68 -17.27 4.44 -16.50 1.90z"/>
  <path d="M541.33 328.17 c-0.38 -2.54 -1.52 -4.44 -2.54 -4.44 -1.02 0 -1.78 -0.89 -1.78 -1.90 0 -1.27 1.40 -1.90 4.44 -1.90 l4.44 0 0 6.35 c0 7.74 -3.17 9.01 -4.57 1.90z"/>
  <path d="M513.65 323.98 c-1.02 -1.78 2.41 -5.08 72.24 -67.54 22.98 -20.57 46.34 -41.64 52.05 -46.59 5.59 -5.08 10.54 -9.27 10.92 -9.27 0.38 0 10.92 9.52 23.36 21.33 12.31 11.68 23.36 21.71 24.38 22.22 1.27 0.76 2.03 0.38 2.54 -1.52 1.27 -5.08 4.19 -3.05 4.19 3.05 0 5.71 0 5.71 -4.44 5.71 -3.05 0 -4.95 -0.76 -5.97 -2.54 -0.89 -1.40 -2.29 -2.54 -3.05 -2.54 -0.76 0 -4.95 -3.68 -9.27 -8.25 -4.44 -4.57 -8.38 -8.25 -8.89 -8.25 -1.52 0 -19.17 -18.41 -19.17 -20.19 0 -2.92 -6.22 -0.38 -10.41 4.32 -2.29 2.79 -4.95 4.44 -6.86 4.44 -2.03 0 -3.05 0.76 -3.05 2.29 0 2.16 -7.36 10.41 -9.27 10.41 -0.51 0 -3.17 2.54 -6.09 5.71 -2.92 3.17 -5.71 5.71 -6.35 5.71 -0.63 0 -3.17 2.29 -5.71 5.08 -2.54 2.79 -5.08 5.08 -5.71 5.08 -0.63 0 -3.17 2.29 -5.71 5.08 -2.92 3.17 -5.71 5.08 -7.62 5.08 -2.03 0 -3.05 0.76 -3.05 2.16 0 2.92 -6.22 9.27 -9.14 9.27 -1.27 0 -2.29 0.76 -2.29 1.65 0 2.67 -8.13 9.78 -11.17 9.78 -1.90 0 -2.79 0.76 -2.79 2.29 0 2.16 -6.09 9.14 -8 9.14 -0.51 0 -2.92 2.29 -5.46 5.08 -2.92 3.17 -5.71 5.08 -7.62 5.08 -2.03 0 -3.05 0.76 -3.05 2.29 0 1.14 -2.67 4.95 -5.84 8.25 -5.71 5.97 -12.06 8.76 -13.71 6.22z"/>
  <path d="M773.14 321.83 c0 -1.27 -1.27 -1.90 -3.55 -1.90 -2.79 0 -6.47 -2.92 -17.77 -14.35 -7.74 -7.87 -14.22 -14.98 -14.22 -15.87 0 -0.76 -1.02 -1.52 -2.29 -1.52 -1.27 0 -5.84 -3.55 -10.16 -8 -6.86 -6.86 -7.87 -8.63 -7.87 -12.70 0 -5.33 3.05 -6.60 4.32 -1.78 0.38 1.65 5.46 7.49 11.17 12.95 38.09 36.31 46.46 45.07 43.42 45.07 -1.90 0 -3.05 -0.76 -3.05 -1.90z"/>
  <path d="M630.70 285.90 l-3.55 -0.38 0 -18.54 0 -18.54 10.54 0.76 c5.71 0.51 13.96 0.89 18.41 0.89 l7.87 0 0 18.41 0 18.28 -14.85 -0.13 c-8.25 -0.13 -16.50 -0.38 -18.41 -0.76z"/>
  <path d="M699.51 223.44 c0 -2.29 0.89 -2.54 10.79 -2.54 9.90 0 10.79 0.25 10.79 2.54 0 2.29 -0.89 2.54 -10.79 2.54 -9.90 0 -10.79 -0.25 -10.79 -2.54z"/>
 </g>
 <g fill="#ef8410">
  <path d="M472.90 487.50 c0.76 -1.14 -28.18 -69.82 -29.45 -69.82 -0.25 0 -2.54 0.89 -5.21 2.03 -10.66 4.57 -10.41 4.44 -9.27 1.40 3.55 -9.14 15.36 -32.63 16.50 -32.63 2.54 0 1.40 7.49 -2.03 14.60 -1.90 3.81 -4.19 6.98 -5.08 6.98 -0.89 0 -1.65 0.76 -1.65 1.78 0 1.14 2.03 1.90 5.84 2.41 6.22 0.63 8.13 2.29 8.13 6.98 0 1.52 0.51 2.79 1.02 2.79 1.27 0 11.68 23.74 11.68 26.41 0 0.89 0.89 2.54 1.90 3.55 1.02 1.14 1.90 3.30 1.90 5.08 0 1.65 0.51 3.05 1.14 3.05 1.65 0 9.01 18.54 9.01 22.85 0 3.05 -0.51 3.81 -2.67 3.81 -1.40 0 -2.16 -0.51 -1.78 -1.27z"/>
  <path d="M822.66 481.15 c0 -3.94 9.65 -26.91 11.55 -27.68 0.63 -0.25 1.14 -1.52 1.14 -2.79 0 -3.05 2.67 -8.89 4.06 -8.89 0.51 0 1.02 -1.02 1.02 -2.16 0 -3.17 3.94 -13.08 5.21 -13.08 0.63 0 1.14 -1.02 1.14 -2.41 0 -1.27 0.89 -4.44 1.90 -6.98 1.65 -4.06 2.41 -4.57 6.35 -4.57 4.06 0 4.44 -0.25 3.17 -2.41 -0.63 -1.40 -1.27 -3.68 -1.27 -5.08 0 -1.27 -0.51 -2.67 -1.14 -2.92 -0.76 -0.13 -4.19 -6.60 -7.62 -14.22 -6.22 -13.33 -8.25 -21.84 -4.82 -20.82 1.52 0.63 26.15 52.30 26.28 55.22 0 1.02 -2.67 0.25 -7.11 -1.78 -5.84 -2.67 -7.36 -2.92 -8.25 -1.52 -0.51 1.02 -7.24 16.12 -14.73 33.77 -7.49 17.65 -14.47 32.12 -15.23 32.12 -1.02 0 -1.65 -1.65 -1.65 -3.81z"/>
  <path d="M801.07 467.19 c0 -0.63 0.76 -1.27 1.78 -1.27 1.52 0 15.74 -31.23 14.60 -32.12 -2.03 -1.65 -25.64 -11.17 -26.66 -10.79 -2.41 0.76 -12.44 25.64 -11.04 27.42 1.02 1.14 0.51 1.52 -2.03 1.52 -2.92 0 -3.30 -0.51 -3.30 -4.32 0 -2.41 0.89 -5.21 1.90 -6.35 1.02 -1.02 1.90 -2.67 1.90 -3.68 0 -1.02 1.65 -5.84 3.68 -10.66 3.43 -7.87 4.06 -8.63 7.74 -9.01 4.32 -0.51 17.77 4.32 17.77 6.22 0 0.63 1.14 1.14 2.54 1.14 3.05 0 8.89 2.67 8.89 4.06 0 0.51 0.89 1.02 1.90 1.02 3.43 0 2.03 6.60 -4.70 22.47 -6.60 15.49 -6.73 15.62 -10.79 15.62 -2.29 0 -4.19 -0.51 -4.19 -1.27z"/>
  <path d="M482.55 453.10 c-3.05 -7.11 -5.84 -15.36 -6.22 -18.41 -0.51 -5.08 -0.38 -5.59 2.16 -5.59 1.65 0 3.68 -0.89 4.70 -1.90 1.14 -1.02 3.30 -1.90 5.08 -1.90 1.65 0 3.05 -0.51 3.05 -1.14 0 -1.52 12.31 -6.47 16.25 -6.47 3.81 0 7.87 4.32 7.87 8.51 0 1.52 0.51 2.92 1.14 2.92 1.65 0 6.47 12.57 6.47 16.76 0 6.60 -2.79 3.30 -8.51 -9.78 -3.05 -6.86 -5.71 -12.82 -6.09 -13.20 -0.63 -0.51 -7.87 2.16 -21.84 8.25 l-6.60 2.92 4.32 9.27 c2.29 5.21 5.46 12.31 6.86 16 l2.67 6.60 -2.92 0 c-2.41 0 -3.68 -2.03 -8.38 -12.82z"/>
  <path d="M538.28 398.13 l0 -43.80 -6.98 -2.16 c-3.81 -1.27 -6.98 -2.67 -6.98 -3.30 0 -0.51 -1.14 -1.02 -2.41 -1.02 -1.40 0 -11.93 -3.43 -23.49 -7.62 -11.55 -4.19 -21.33 -7.62 -21.71 -7.62 -0.38 0 -2.16 3.43 -4.06 7.62 -1.78 4.19 -4.06 7.62 -4.95 7.62 -1.14 0 -1.78 1.40 -1.78 3.81 0 2.03 -1.27 6.35 -2.79 9.52 -2.16 4.32 -3.55 5.71 -5.71 5.71 -3.43 0 -4.32 2.67 7.87 -23.99 4.06 -9.14 8.25 -16.63 9.01 -16.63 0.89 0 9.39 2.92 19.04 6.47 9.78 3.55 24.63 8.89 33.26 12.06 l15.49 5.59 0 -13.33 0 -13.33 -14.85 0 -14.98 -0.13 5.21 -4.70 c6.35 -5.59 69.44 -62.46 101.44 -91.15 12.57 -11.30 24.50 -21.84 26.41 -23.36 l3.55 -2.79 3.68 2.92 c1.90 1.65 13.20 12.06 25.01 23.23 l21.33 20.06 0.38 -12.82 0.38 -12.82 10.66 0 10.79 0 0 23.23 0 23.23 28.44 27.29 28.44 27.17 -14.47 0.38 -14.47 0.38 0 14.47 c0 8 0.25 14.60 0.38 14.60 0.63 0 35.80 -12.70 57.89 -20.82 16.50 -6.09 19.17 -6.73 19.17 -4.57 0 0.76 2.67 6.86 5.84 13.71 10.16 21.46 9.90 20.57 6.47 20.57 -2.29 0 -3.68 -1.65 -6.98 -8.25 -2.29 -4.57 -4.06 -9.39 -4.06 -10.79 0 -1.40 -0.51 -2.54 -1.14 -2.54 -0.63 0 -1.78 -1.65 -2.67 -3.81 -0.89 -2.16 -1.78 -3.81 -2.03 -3.81 -0.63 0 -62.46 22.47 -66.14 24.12 l-2.92 1.27 0 39.99 0 39.99 -3.17 0 c-1.78 0 -11.68 -2.79 -21.96 -6.35 -24.63 -8.25 -40.50 -11.30 -68.43 -13.08 -12.82 -0.76 -23.23 -1.90 -23.23 -2.41 0 -0.51 0.89 -1.02 1.90 -1.02 1.65 0 1.90 -2.79 1.65 -20.57 l-0.38 -20.69 -26.03 0 -26.03 0 0.13 24.12 c0.25 21.46 0.38 24.12 2.29 23.74 1.27 -0.25 2.03 0.51 2.03 2.29 0 1.65 -0.89 2.54 -2.41 2.54 -3.05 0 -30.72 9.52 -37.20 12.82 -2.67 1.40 -6.73 2.41 -9.27 2.41 l-4.44 0 0 -43.67z m104.74 -122 l0 -6.35 -5.97 -0.38 -6.09 -0.38 0 6.35 c0 5.84 0.25 6.35 3.55 6.86 7.87 1.27 8.51 0.76 8.51 -6.09z m17.14 0.63 l0 -6.35 -6.35 0 -6.35 0 0 5.59 c0 6.09 0.63 6.47 9.27 6.98 3.30 0.13 3.43 -0.13 3.43 -6.22z m-16.50 -16.38 c0 -6.09 0 -6.09 -4.70 -6.98 -8 -1.27 -8 -1.27 -8 6.22 l0 6.98 6.35 0 6.35 0 0 -6.22z m16.50 -0.13 l0 -6.35 -6.35 0 -6.35 0 0 6.35 0 6.35 6.35 0 6.35 0 0 -6.35z"/>
  <path d="M446.88 382.76 c2.41 -6.22 6.47 -13.33 7.62 -13.33 2.03 0 1.52 7.11 -0.89 12.06 -1.52 3.17 -2.92 4.44 -5.08 4.44 -2.54 0 -2.67 -0.38 -1.65 -3.17z"/>
  <path d="M474.30 370.20 c-2.16 -4.95 -3.30 -9.78 -3.05 -12.31 0.38 -3.68 1.02 -4.44 4.82 -5.46 2.41 -0.63 4.82 -1.90 5.33 -2.54 0.51 -0.76 4.06 -1.40 8 -1.40 7.36 0 9.52 1.40 9.52 6.09 0 1.27 0.89 3.17 1.90 4.19 1.14 1.14 1.90 4.32 1.90 7.62 0 4.70 -0.38 5.59 -2.41 5.59 -1.40 0 -2.67 0.38 -2.92 1.02 -0.89 1.90 -10.16 5.33 -14.85 5.33 -4.70 0 -4.95 -0.13 -8.25 -8.13z m13.08 1.90 c1.14 -0.76 1.40 -2.29 0.89 -4.44 -0.63 -2.79 -1.40 -3.30 -3.68 -2.54 -4.06 1.14 -5.08 2.41 -4.06 5.46 0.89 2.79 3.81 3.43 6.86 1.52z m9.01 -3.94 c2.16 -1.14 2.29 -1.78 1.02 -4.44 -1.65 -3.55 -1.90 -3.68 -5.59 -1.52 -2.16 1.14 -2.54 2.16 -1.65 4.44 1.14 3.05 2.67 3.43 6.22 1.52z m-11.43 -6.60 c0 -0.63 -0.63 -2.29 -1.27 -3.55 -1.14 -2.16 -1.78 -2.29 -4.44 -1.02 -3.55 1.52 -3.81 2.54 -1.90 6.09 1.14 2.16 1.78 2.29 4.44 1.02 1.78 -0.76 3.17 -1.90 3.17 -2.54z m7.74 -2.29 c2.03 -1.14 2.16 -1.78 1.02 -4.19 -2.03 -3.94 -1.90 -3.81 -5.21 -2.03 -4.06 2.03 -3.94 1.90 -2.29 4.82 1.52 3.05 2.92 3.30 6.47 1.40z"/>
  <path d="M809.71 377.43 c-1.27 -0.25 -2.29 -1.02 -2.29 -1.52 0 -0.38 -2.54 -1.65 -5.71 -2.54 -5.46 -1.65 -5.71 -1.90 -5.71 -6.35 0 -2.54 1.40 -8 3.05 -12.19 2.92 -6.98 3.55 -7.62 7.36 -8 2.79 -0.25 7.49 1.02 12.82 3.43 7.74 3.55 8.51 4.19 8.51 7.62 0 2.16 -1.52 7.62 -3.43 12.19 -3.30 8 -3.43 8.25 -7.87 8.13 -2.54 -0.13 -5.59 -0.38 -6.73 -0.76z m7.87 -5.33 c0 -0.63 0.25 -2.03 0.63 -2.92 0.51 -1.14 -0.51 -2.41 -2.54 -3.30 -4.32 -1.90 -4.06 -2.03 -4.95 1.90 -0.63 2.16 -0.38 3.68 0.76 4.32 2.29 1.52 6.09 1.40 6.09 0z m-8.38 -5.46 c0.51 -1.90 0 -3.43 -1.40 -4.44 -3.17 -2.41 -4.82 -2.03 -6.47 1.40 -1.14 2.54 -0.89 3.17 1.40 4.32 4.32 2.03 5.59 1.78 6.47 -1.27z m12.82 -5.71 c0.63 -2.29 0.13 -3.17 -2.54 -4.44 -2.79 -1.27 -3.55 -1.14 -4.57 0.38 -1.90 3.05 -1.27 5.71 1.78 7.11 3.17 1.52 4.06 1.02 5.33 -3.05z m-9.65 -3.17 c1.52 -2.41 1.40 -2.92 -0.63 -4.44 -3.30 -2.41 -4.95 -2.03 -6.60 1.52 -1.14 2.54 -1.02 3.30 0.76 4.32 3.30 1.90 4.57 1.65 6.47 -1.40z"/>
 </g>
 <g fill="#d26113">
  <path d="M473.54 486.10 c0 -0.76 -5.08 -13.20 -11.43 -27.68 -6.22 -14.60 -11.43 -27.17 -11.43 -27.93 0 -0.76 2.03 -1.40 4.44 -1.40 3.17 0 4.44 0.51 4.44 1.90 0 1.52 0.51 1.65 2.41 0.63 3.17 -1.65 20.06 -1.65 21.07 0 0.38 0.76 -0.13 1.27 -1.14 1.27 -1.14 0 -2.03 0.38 -2.03 0.76 0 0.38 3.17 8.13 7.24 17.14 4.95 11.43 7.62 16.25 8.89 15.87 0.89 -0.38 1.65 0.13 1.65 1.27 0 2.54 -13.71 15.62 -17.39 16.50 -1.65 0.51 -2.92 1.27 -2.92 1.90 0 0.63 -0.89 1.14 -1.90 1.14 -1.02 0 -1.90 -0.63 -1.90 -1.40z"/>
  <path d="M816.94 482.17 c-1.40 -0.76 -3.30 -2.54 -4.19 -3.81 -0.89 -1.27 -2.54 -2.29 -3.55 -2.29 -1.02 0 -1.78 -0.51 -1.78 -1.14 0 -0.63 -1.65 -1.78 -3.81 -2.67 -4.70 -1.90 -5.46 -7.24 -1.14 -7.11 2.29 0.13 3.81 -2.41 9.39 -15.49 6.22 -14.09 6.60 -15.62 4.57 -16.76 -8.13 -4.32 -26.03 -11.43 -26.79 -10.54 -0.51 0.51 -3.30 6.86 -6.35 14.09 -4.06 9.78 -5.97 12.95 -7.74 12.95 -1.27 0 -2.67 -0.51 -3.05 -1.27 -0.38 -0.63 -1.90 -1.27 -3.17 -1.27 -1.40 0 -3.43 -1.02 -4.70 -2.41 -2.54 -2.67 -12.57 -7.74 -15.36 -7.74 -1.14 0 -1.52 -0.76 -1.02 -2.03 0.38 -1.14 0.76 -5.84 0.76 -10.66 0 -6.09 0.63 -9.27 1.90 -10.66 1.02 -1.02 1.90 -2.67 1.90 -3.68 0 -1.14 2.03 -2.03 5.84 -2.67 9.65 -1.27 10.41 -1.14 11.30 3.05 0.76 3.30 1.40 3.81 5.21 3.81 2.41 0 4.32 -0.51 4.32 -1.27 0 -1.40 5.84 -1.65 13.08 -0.51 3.81 0.63 4.70 1.40 4.70 3.68 0 3.94 1.52 4.32 13.33 2.79 7.36 -0.89 10.16 -0.89 10.54 0.25 0.25 0.76 1.52 1.40 2.92 1.40 1.27 0 2.41 0.76 2.41 1.78 0 1.02 1.78 2.16 3.94 2.67 2.16 0.51 4.19 1.90 4.57 3.05 0.25 1.14 1.65 2.79 2.92 3.55 1.90 1.27 2.41 1.02 3.05 -1.65 0.63 -2.41 1.65 -3.05 5.08 -3.05 l4.32 0 -4.19 9.90 c-2.29 5.33 -7.62 17.65 -11.93 27.29 -4.19 9.65 -7.74 18.03 -7.74 18.79 0 1.65 -6.47 1.40 -9.52 -0.38z"/>
  <path d="M519.87 450.68 c0.76 -1.27 -8.51 -24.50 -11.04 -27.55 -0.63 -0.76 -2.03 -1.14 -3.05 -0.76 -1.14 0.38 -1.78 -0.25 -1.78 -2.03 0 -2.16 0.76 -2.67 4.44 -2.67 4.06 0 4.44 0.25 4.44 3.81 0 2.41 0.63 3.81 1.78 3.81 2.16 0 3.30 2.79 3.30 7.74 0 2.41 0.63 3.68 1.90 3.68 1.14 0 1.90 1.14 1.90 3.17 0 1.78 0.63 3.17 1.27 3.17 0.76 0 1.27 2.03 1.27 4.44 0 3.68 -0.51 4.44 -2.67 4.44 -1.40 0 -2.16 -0.51 -1.78 -1.27z"/>
  <path d="M537.01 427.20 c0 -12.44 0.13 -13.33 2.54 -13.33 2.41 0 2.54 0.89 2.54 12.19 0 10.28 0.25 12.06 1.90 11.43 1.14 -0.38 1.90 0 1.90 1.14 0 1.27 -1.40 1.90 -4.44 1.90 l-4.44 0 0 -13.33z"/>
  <path d="M487.50 427.32 c0 -3.30 2.16 -4.57 7.74 -4.57 6.35 0 4.32 3.05 -4.44 6.35 -2.92 1.14 -3.30 0.89 -3.30 -1.78z"/>
  <path d="M429.10 422.25 c0 -1.90 6.60 -14.73 7.62 -14.73 0.63 0 1.27 2.03 1.27 4.44 0 3.05 -0.63 4.44 -1.90 4.44 -1.02 0 -1.90 1.14 -1.90 2.41 0 1.27 -0.89 2.79 -2.03 3.17 -2.29 0.89 -3.05 1.02 -3.05 0.25z"/>
  <path d="M794.73 363.72 c0 -4.06 0.25 -4.44 3.94 -4.44 3.30 0 3.81 0.38 3.05 2.29 -0.51 1.14 -1.27 3.17 -1.52 4.44 -0.38 1.14 -1.78 2.16 -3.05 2.16 -1.90 0 -2.41 -0.89 -2.41 -4.44z"/>
 </g>
 <g fill="#c66112">
  <path d="M814.02 481.15 c-4.32 -4.19 -8.51 -7.62 -9.01 -7.62 -0.63 0 -1.40 -1.65 -1.65 -3.81 -0.38 -2.03 -0.25 -3.43 0.13 -3.17 0.38 0.38 1.65 -1.14 3.05 -3.43 1.27 -2.29 1.90 -3.05 1.40 -1.65 -2.03 6.22 -2.03 6.73 0.63 7.62 1.52 0.38 2.67 1.40 2.67 2.03 0 0.76 0.51 1.02 1.14 0.51 0.63 -0.38 2.29 0.63 3.55 2.29 2.79 3.55 7.62 6.35 9.14 5.46 1.65 -1.14 11.55 -24.12 11.81 -27.80 0.13 -1.78 0.76 -2.92 1.40 -2.54 0.63 0.38 0.38 -0.63 -0.63 -2.16 -1.27 -2.29 -1.27 -3.05 0 -3.43 0.76 -0.38 1.52 -1.14 1.52 -1.90 0 -0.76 -1.14 -0.38 -2.67 1.02 -2.67 2.41 -2.67 2.41 -2.29 -2.29 0.25 -2.54 0 -5.08 -0.51 -5.59 -0.51 -0.51 -0.89 -0.13 -0.89 0.76 0 0.89 -0.38 1.27 -0.89 0.76 -0.63 -0.51 -1.02 -2.16 -1.02 -3.55 0 -1.52 -1.14 -3.05 -2.79 -3.68 -2.29 -0.76 -2.92 -0.63 -2.92 0.89 0 1.27 -1.14 0.63 -3.30 -1.90 -1.78 -2.16 -3.94 -3.55 -4.70 -3.05 -0.89 0.51 -1.02 0 -0.38 -1.65 0.76 -1.90 0.63 -2.16 -0.63 -0.76 -0.89 0.76 -2.79 1.52 -4.32 1.52 -2.03 0 -2.16 0.25 -0.63 1.27 1.52 1.02 1.52 1.27 0.13 1.27 -1.02 0 -2.41 -0.76 -3.17 -1.78 -0.89 -1.14 -2.29 -1.40 -3.81 -0.89 -1.78 0.63 -0.25 1.78 6.35 4.57 4.82 1.90 9.01 3.81 9.27 4.06 0.25 0.13 -1.90 6.09 -4.95 13.08 -2.92 7.11 -5.59 12.57 -5.84 12.31 -0.25 -0.25 1.78 -5.71 4.57 -12.31 2.92 -6.47 4.95 -11.93 4.82 -12.06 -2.29 -1.90 -28.18 -11.93 -28.95 -11.17 -0.51 0.51 -3.30 6.60 -6.22 13.58 -4.06 9.65 -4.95 12.95 -3.81 14.22 3.05 3.68 -6.22 1.78 -14.22 -2.79 -19.30 -11.43 -73.25 -27.17 -92.68 -27.17 -4.19 0 -4.95 -0.38 -4.95 -2.67 0 -2.67 0.38 -2.79 9.78 -1.90 15.87 1.52 34.15 5.59 53.45 12.06 l18.03 6.09 0 -39.86 0 -39.74 2.92 -1.27 c9.78 -4.19 72.49 -26.53 73 -26.15 0.25 0.38 3.30 6.47 6.60 13.71 3.30 7.24 13.20 28.44 21.96 47.35 8.76 18.79 15.87 34.40 15.62 34.53 -0.25 0.25 -3.55 -1.02 -7.62 -2.79 l-7.24 -3.17 -1.02 2.92 c-2.29 5.84 -8.25 19.93 -17.52 40.88 -6.60 14.85 -9.27 22.60 -9.01 25.01 0.89 5.97 -3.81 4.44 -12.70 -4.06z m-30.34 -52.94 c0.13 -4.57 -2.29 -8.13 -4.95 -7.11 -2.67 1.02 -2.16 3.55 1.14 5.97 1.52 1.14 1.90 1.90 0.89 1.65 -1.02 -0.13 -2.67 -1.02 -3.55 -1.90 -2.41 -2.16 -4.44 -0.51 -2.16 1.78 3.30 3.30 1.90 6.35 -1.90 4.32 -1.78 -0.89 -2.16 -0.76 -2.03 1.02 0.13 1.40 -0.63 2.03 -2.03 1.78 -1.40 -0.25 -2.29 0.38 -2.29 1.65 0 1.14 0.51 1.65 1.27 1.27 0.63 -0.38 0.89 0 0.51 1.02 -0.63 1.90 2.67 3.94 4.57 2.79 0.51 -0.38 1.78 0.38 2.67 1.40 1.52 1.90 2.03 1.27 4.82 -4.70 1.65 -3.81 3.05 -8.63 3.05 -10.92z m-15.87 1.52 c-0.25 -0.38 -2.03 -0.76 -3.81 -0.89 -2.03 -0.13 -3.05 -0.89 -2.67 -1.78 0.25 -0.89 -0.38 -3.05 -1.52 -4.82 -1.27 -1.78 -1.78 -4.19 -1.40 -5.33 0.63 -1.65 0.51 -1.78 -0.89 -0.76 -1.02 0.89 -2.16 1.02 -2.79 0.51 -0.51 -0.51 -0.25 0.38 0.51 2.03 1.52 2.79 1.40 2.92 -1.02 1.65 -1.40 -0.76 -2.79 -0.89 -3.17 -0.25 -1.27 1.90 0.76 12.82 2.41 12.82 0.76 0 3.68 1.14 6.47 2.41 l4.95 2.54 1.78 -3.81 c1.02 -2.03 1.52 -3.94 1.14 -4.32z m24.76 -11.17 c0.51 0.38 0.89 0.25 0.89 -0.51 0 -0.76 -1.65 -1.65 -3.81 -1.90 -2.16 -0.38 -3.81 0 -3.81 0.76 0 0.76 -0.63 0.51 -1.27 -0.51 -1.65 -2.54 -1.65 -0.51 0 2.67 1.27 2.16 1.65 2.29 4.32 0.51 1.52 -1.02 3.30 -1.52 3.68 -1.02z m-26.91 -5.21 c-0.76 -0.89 -0.89 -2.03 -0.38 -2.67 0.51 -0.51 -0.38 -0.25 -1.90 0.51 -3.30 1.65 -3.94 2.92 -1.02 1.90 1.27 -0.51 1.90 0 1.90 1.40 0 1.14 0.63 1.65 1.27 1.27 1.02 -0.63 1.02 -1.40 0.13 -2.41z m52.94 -42.53 c1.27 -3.43 1.02 -3.81 -2.29 -5.21 -2.03 -0.89 -4.32 -1.14 -4.95 -0.63 -0.76 0.38 -1.40 0 -1.40 -1.14 0 -1.02 -0.38 -2.03 -0.89 -2.41 -0.63 -0.25 -0.38 -0.38 0.38 -0.13 1.40 0.25 4.32 -4.57 4.32 -6.98 0 -1.52 -6.60 -4.19 -7.62 -3.05 -0.51 0.51 -1.90 3.68 -3.05 7.11 -1.27 3.30 -2.67 5.71 -3.30 5.33 -0.51 -0.38 -0.76 0.51 -0.38 1.78 0.38 1.40 1.52 2.67 2.67 3.05 1.27 0.38 3.05 1.02 4.32 1.52 1.40 0.51 2.29 0.13 2.67 -1.52 0.51 -1.78 0.63 -1.65 0.76 0.63 0.13 1.65 1.27 3.30 3.05 4.06 4.19 1.65 4.32 1.65 5.71 -2.41z m3.94 -9.01 c1.14 -3.55 1.02 -3.94 -2.41 -5.71 -2.03 -1.02 -3.94 -1.90 -4.32 -1.90 -0.63 0 -3.55 7.87 -3.05 8.25 5.46 4.06 8.13 3.81 9.78 -0.63z"/>
  <path d="M470.23 476.46 c-4.44 -10.03 -5.59 -13.08 -4.95 -13.08 0.38 0 2.41 3.81 4.57 8.63 2.16 4.70 4.44 8.76 5.08 8.89 1.52 0.63 1.40 2.79 -0.13 2.79 -0.76 0 -2.79 -3.30 -4.57 -7.24z"/>
  <path d="M460.08 453.60 c-1.78 -4.06 -4.32 -9.90 -5.59 -13.08 -5.59 -13.71 -10.28 -22.85 -11.81 -22.85 -0.76 0 -4.06 1.14 -7.11 2.54 -6.86 3.17 -6.73 3.17 -5.08 -0.89 2.03 -5.33 42.02 -91.03 42.91 -92.04 0.51 -0.51 16.12 4.57 34.79 11.30 l33.90 12.19 0 32.50 c0 33.90 -0.38 38.21 -3.30 38.21 -1.40 0 -1.78 -2.16 -1.78 -8.76 0 -5.84 -0.51 -8.89 -1.52 -9.27 -0.89 -0.25 -5.84 -0.25 -10.79 0 l-9.27 0.51 0 3.68 c0 3.68 0 3.68 -8 3.68 -9.39 0 -14.85 2.03 -14.85 5.71 0 1.40 -1.14 3.43 -2.54 4.44 -1.40 1.02 -2.54 2.29 -2.54 2.79 0 0.51 1.14 1.02 2.54 1.02 1.40 0 2.54 -0.89 2.54 -1.90 0 -1.14 1.14 -1.90 3.17 -1.90 1.78 0 3.17 -0.51 3.17 -1.27 0 -0.63 2.03 -1.27 4.44 -1.27 5.84 0 5.71 2.16 -0.25 4.57 -5.71 2.29 -22.34 9.78 -23.11 10.28 -0.25 0.13 1.65 4.95 4.19 10.66 2.54 5.71 4.44 10.66 4.19 10.92 -0.25 0.25 -2.67 -4.44 -5.33 -10.41 -5.21 -11.43 -7.49 -13.20 -11.81 -8.51 -1.27 1.27 -1.78 1.65 -1.14 0.76 0.51 -0.89 0.13 -1.78 -1.02 -2.29 -1.02 -0.38 -1.90 -0.13 -1.90 0.63 0 0.76 -0.51 1.02 -1.14 0.51 -0.63 -0.38 -2.03 0.13 -3.05 1.14 -1.02 1.02 -2.16 1.65 -2.54 1.27 -0.25 -0.38 -0.89 0.51 -1.27 2.03 -0.51 1.78 0 2.54 1.40 2.67 1.27 0 1.52 0.38 0.63 0.63 -1.02 0.51 -1.14 1.78 -0.13 4.70 2.03 6.60 3.30 12.31 2.79 12.31 -0.25 0 -2.03 -3.30 -3.81 -7.24z m26.53 -80.49 c1.52 -0.89 2.92 -1.65 3.17 -1.78 0.13 -0.13 -0.25 -1.90 -1.02 -3.81 -1.14 -2.92 -1.78 -3.30 -4.82 -2.67 -3.05 0.76 -3.17 0.63 -0.89 -0.63 1.40 -0.89 2.67 -1.65 2.92 -1.78 0.13 -0.13 -0.38 -1.90 -1.27 -3.68 -1.27 -2.92 -2.03 -3.30 -4.70 -2.67 -1.78 0.51 -3.81 1.27 -4.32 1.78 -1.14 1.14 1.52 7.74 3.17 7.74 0.63 0 0.89 0.51 0.38 1.14 -0.89 1.52 1.90 7.74 3.43 7.74 0.63 0 2.41 -0.63 3.94 -1.40z m10.16 -4.44 c2.54 -0.89 2.67 -2.16 0.89 -5.71 -1.52 -2.79 -3.68 -3.05 -6.86 -0.76 -1.78 1.27 -1.90 2.16 -0.89 5.21 0.89 2.03 2.03 3.17 3.05 2.79 0.76 -0.38 2.54 -1.14 3.81 -1.52z m-4.82 -8.38 c3.55 -1.65 3.94 -3.30 1.52 -6.60 -1.14 -1.65 -2.54 -2.03 -5.08 -1.40 -3.68 1.02 -4.32 3.05 -2.16 7.11 1.65 2.79 1.52 2.79 5.71 0.89z"/>
  <path d="M537.01 437.35 c0 -3.05 0.63 -4.44 1.90 -4.44 1.02 0 1.90 0.76 1.90 1.78 0 3.17 2.29 3.43 7.24 1.02 6.60 -3.43 34.28 -12.95 37.32 -12.95 1.52 0 2.41 0.89 2.41 2.41 0 1.78 -1.78 2.79 -7.87 4.57 -4.44 1.14 -13.46 4.44 -20.19 7.11 -7.36 3.05 -14.22 4.95 -17.39 4.95 -5.21 0 -5.33 -0.13 -5.33 -4.44z"/>
  <path d="M636.04 417.17 c0 -2.29 4.06 -3.30 13.96 -3.30 9.90 0 13.96 1.02 13.96 3.30 0 1.40 -2.92 1.78 -13.96 1.78 -11.04 0 -13.96 -0.38 -13.96 -1.78z"/>
 </g>
 <g fill="#c95a12">
  <path d="M472.52 487.50 c1.27 -2.03 1.02 -3.55 -1.27 -9.01 -1.52 -3.68 -2.54 -6.86 -2.29 -7.11 0.25 -0.38 1.52 1.78 2.79 4.57 1.27 2.92 2.92 5.21 3.81 5.21 3.94 0 16.50 -12.44 16 -15.87 -0.38 -2.41 -0.25 -2.41 1.02 -0.25 1.02 1.52 2.29 2.03 3.94 1.52 1.90 -0.63 2.41 -0.25 2.41 2.16 0 3.94 -20.19 21.33 -24.76 21.33 -2.79 0 -3.05 -0.25 -1.65 -2.54z"/>
  <path d="M816.56 484.71 c-2.16 -2.29 -6.47 -6.09 -9.65 -8.51 -4.19 -3.05 -5.84 -5.08 -5.84 -7.36 0 -1.90 0.63 -2.92 1.65 -2.54 0.76 0.25 2.16 -0.38 3.05 -1.52 1.27 -1.78 1.40 -1.65 0.89 0.63 -0.51 1.90 0.25 3.30 2.67 4.82 4.57 3.05 15.87 13.58 17.27 16.38 1.02 1.78 0.63 2.16 -2.41 2.16 -2.41 0 -4.95 -1.40 -7.62 -4.06z"/>
  <path d="M465.92 466.30 c-2.03 -4.70 -13.84 -31.99 -15.36 -35.55 -0.63 -1.65 -0.63 -2.92 0 -2.92 0.63 0 1.78 1.78 2.54 3.81 0.89 2.54 2.16 3.81 3.81 3.81 1.52 0 2.67 0.51 2.67 1.27 0 0.63 -1.02 0.89 -2.16 0.38 -2.03 -0.63 -1.90 -0.51 0.13 1.14 1.27 1.02 2.03 2.54 1.52 3.30 -0.51 1.02 0 1.52 1.40 1.52 1.40 0 1.78 0.38 0.89 1.02 -1.65 1.02 0.51 9.65 4.70 19.17 1.40 3.05 2.29 5.71 2.03 5.97 -0.25 0.25 -1.27 -1.02 -2.16 -2.92z"/>
  <path d="M484.58 448.78 c-3.05 -6.35 -2.54 -7.36 0.51 -1.52 1.40 2.79 2.41 5.21 2.16 5.46 -0.38 0.25 -1.52 -1.52 -2.67 -3.94z"/>
  <path d="M518.60 451.45 c2.29 -1.65 2.29 -2.16 -2.92 -14.22 -2.92 -6.98 -5.84 -13.33 -6.47 -14.35 -0.89 -1.27 -3.94 -0.38 -15.23 4.32 -13.71 5.84 -14.22 6.22 -13.58 9.39 0.76 3.05 0.63 3.05 -0.76 0.76 -1.78 -3.05 -3.68 -4.44 -5.08 -3.68 -0.51 0.38 -1.02 -0.13 -1.02 -1.27 0 -1.02 0.38 -2.03 1.02 -2.41 0.51 -0.25 0.13 -0.25 -0.63 -0.13 -2.03 0.51 -5.46 -0.76 -5.46 -1.90 0 -0.51 1.14 -2.16 2.67 -3.81 2.03 -2.16 3.05 -2.54 4.44 -1.27 1.40 1.14 1.78 1.14 1.78 0 0 -0.89 0.63 -1.14 1.65 -0.51 2.54 1.52 4.82 1.52 4.57 0 -0.13 -0.89 -0.13 -2.67 0 -4.06 0.13 -2.16 0.38 -2.29 1.52 -0.63 1.14 1.65 1.27 1.52 0.63 -0.25 -0.76 -2.54 1.27 -4.32 2.16 -2.03 0.51 1.14 0.76 1.14 0.76 0.13 0.13 -0.76 -0.76 -2.29 -1.78 -3.30 -2.03 -2.03 -1.40 -3.05 4.06 -5.84 2.41 -1.27 2.79 -1.14 2.16 0.51 -0.38 1.02 -1.27 1.65 -1.78 1.27 -0.63 -0.38 -1.40 -0.13 -1.90 0.63 -0.38 0.63 -0.25 1.27 0.25 1.27 2.29 0 16.25 -8 18.79 -10.66 2.54 -2.67 2.92 -2.79 4.19 -0.89 1.27 1.65 1.40 1.65 1.14 0.13 -0.13 -1.02 0.38 -1.78 1.14 -1.65 0.89 0.13 1.27 -0.76 0.89 -2.16 -0.38 -1.52 0 -2.54 0.76 -2.54 0.89 0 1.27 0.51 0.89 1.14 -0.38 0.63 0.13 1.40 1.14 1.90 2.29 0.89 2.54 -1.90 0.38 -4.32 -1.40 -1.52 -1.27 -1.52 0.63 -0.13 1.27 1.02 2.16 1.14 2.16 0.38 0 -0.76 1.02 -1.14 2.29 -0.89 1.14 0.13 2.03 1.27 2.03 2.41 -0.13 1.02 0.25 1.65 1.02 1.27 0.63 -0.38 0.76 -1.90 0.38 -3.43 l-0.76 -2.79 1.65 2.67 c0.89 1.52 2.41 2.41 3.30 2.16 0.76 -0.38 1.52 0.25 1.52 1.40 0 2.67 3.81 1.14 3.94 -1.65 0 -1.52 0.25 -1.40 1.14 0.51 0.76 2.16 1.02 1.78 1.52 -1.90 0.38 -2.41 0.76 7.11 0.76 21.33 0.25 24.76 0.38 25.64 2.79 25.64 1.52 0 2.54 0.89 2.54 2.29 0 3.05 -19.42 12.95 -25.26 12.95 -4.06 0 -4.19 -0.13 -2.03 -1.78z m-9.52 -48.50 c0 -1.02 0.63 -1.52 1.27 -1.14 0.76 0.38 1.27 -0.13 1.27 -1.14 0 -2.67 -0.25 -2.54 -3.81 1.14 -2.41 2.67 -2.67 3.17 -0.89 3.17 1.14 0 2.16 -0.89 2.16 -2.03z"/>
  <path d="M759.56 445.86 c-11.43 -5.84 -14.09 -7.74 -14.22 -10.03 l-0.13 -2.92 8.25 3.17 c9.14 3.43 24.63 12.06 27.29 15.11 3.68 4.44 -7.11 1.78 -21.20 -5.33z"/>
  <path d="M839.67 445.48 c0 -2.67 0.51 -4.44 1.02 -4.19 1.14 0.76 3.68 -4.06 2.67 -5.08 -0.38 -0.38 -0.13 -0.76 0.63 -0.76 2.03 0 1.90 0.89 -1.52 8.25 l-3.05 6.35 0.25 -4.57z"/>
  <path d="M782.03 436.21 c0 -1.52 3.68 -9.65 4.32 -9.65 0.38 0 -0.25 2.16 -1.40 4.82 -2.03 4.82 -2.92 6.35 -2.92 4.82z"/>
  <path d="M806.15 427.83 c-4.57 -2.03 -7.62 -3.68 -6.86 -3.81 1.90 0 15.74 6.09 15.74 6.98 0 0.76 0.76 1.14 -8.89 -3.17z"/>
  <path d="M430.50 419.83 c2.16 -4.06 2.41 -4.19 2.41 -1.27 0 1.52 -0.89 2.92 -1.90 3.43 -1.65 0.63 -1.78 0.25 -0.51 -2.16z"/>
  <path d="M856.93 417.04 c-1.78 -1.02 -2.54 -1.78 -1.90 -1.78 0.76 0 2.67 0.76 4.44 1.78 1.78 1.02 2.67 1.78 1.90 1.78 -0.63 0 -2.67 -0.76 -4.44 -1.78z"/>
  <path d="M533.46 390.89 c-0.89 -1.52 -1.40 -3.05 -1.02 -3.43 0.38 -0.38 0.76 0 0.76 0.89 0 0.89 0.63 1.14 1.27 0.76 0.76 -0.38 1.27 0.38 1.27 1.78 0 3.30 -0.25 3.30 -2.29 0z"/>
  <path d="M812.63 363.85 c-1.90 -1.02 -2.54 -2.03 -1.52 -2.54 0.76 -0.51 1.40 -0.38 1.40 0.25 0 0.63 1.27 1.78 2.92 2.54 1.52 0.76 2.29 1.40 1.52 1.40 -0.63 0 -2.67 -0.76 -4.32 -1.65z"/>
  <path d="M485.47 362.20 c-0.13 -1.27 -0.51 -3.43 -1.14 -4.82 -0.51 -1.40 0.25 -0.76 1.65 1.27 2.29 3.55 2.54 5.71 0.51 5.71 -0.51 0 -1.02 -1.02 -1.02 -2.16z"/>
 </g>
 <g fill="#1557a6">
  <path d="M616.99 915.33 c-43.67 -5.97 -85.95 -23.74 -121.24 -50.65 -13.33 -10.03 -34.79 -31.99 -45.70 -46.46 -35.42 -47.10 -53.32 -103.59 -51.04 -160.60 1.65 -38.09 9.14 -68.17 25.39 -101.56 37.20 -76.68 109.69 -128.73 193.60 -139.14 86.33 -10.66 168.85 21.71 225.60 88.36 15.11 17.77 32.63 48.12 42.15 73 9.52 24.88 15.62 59.29 15.62 88.23 0 76.55 -34.28 148.15 -93.95 195.89 -29.71 23.87 -70.46 42.78 -108.67 50.53 -11.43 2.29 -18.92 2.79 -43.67 3.17 -16.38 0.13 -33.52 -0.13 -38.09 -0.76z m55.86 -62.71 c8.76 -1.90 24.25 -6.22 34.53 -9.65 10.28 -3.55 19.04 -6.35 19.42 -6.35 0.25 0 2.29 3.43 4.44 7.62 2.16 4.19 4.32 7.62 4.95 7.62 1.02 0 21.84 -49.77 21.20 -50.53 -1.14 -1.14 -54.84 -12.31 -55.10 -11.43 -0.25 0.51 1.27 4.06 3.43 7.87 2.16 3.68 3.94 7.24 3.94 7.62 0 1.52 -25.26 13.08 -38.85 17.65 -37.32 12.95 -80.36 15.23 -122.64 6.73 -41.51 -8.38 -89.12 -31.10 -121.62 -58.02 l-3.17 -2.67 3.17 0.76 c89.76 21.07 189.29 12.70 265.97 -22.47 40.75 -18.79 75.41 -42.78 107.66 -75.03 13.84 -13.71 40.63 -45.20 42.40 -49.77 1.02 -2.79 2.41 -2.29 14.60 5.21 6.22 3.81 11.55 6.98 11.68 6.98 0.13 0 -2.67 -17.90 -6.22 -39.61 -5.08 -30.98 -6.98 -39.74 -8.38 -39.61 -2.03 0.25 -74.90 25.52 -75.66 26.28 -0.25 0.25 4.70 3.55 11.04 7.11 6.22 3.68 11.43 6.86 11.43 7.24 0 0.38 -3.17 5.84 -7.11 12.31 -16 26.28 -34.66 49.51 -56.11 69.57 -75.66 71.09 -192.71 105.12 -311.29 90.64 l-5.71 -0.76 9.52 9.14 c34.28 32.63 85.31 61.19 129.24 72.24 25.77 6.47 35.93 7.62 68.17 7.11 25.52 -0.51 31.23 -0.89 45.07 -3.81z"/>
 </g>
</svg>